<?xml version="1.0" encoding="utf-8"?>
<!-- Generator: Adobe Illustrator 22.1.0, SVG Export Plug-In . SVG Version: 6.00 Build 0)  -->
<svg version="1.1"
     id="Layer_1" inkscape:version="0.91 r13725" sodipodi:docname="Tesla_Motors.svg" xmlns:cc="http://creativecommons.org/ns#" xmlns:dc="http://purl.org/dc/elements/1.1/" xmlns:inkscape="http://www.inkscape.org/namespaces/inkscape" xmlns:rdf="http://www.w3.org/1999/02/22-rdf-syntax-ns#" xmlns:sodipodi="http://sodipodi.sourceforge.net/DTD/sodipodi-0.dtd" xmlns:svg="http://www.w3.org/2000/svg"
     xmlns="http://www.w3.org/2000/svg" xmlns:xlink="http://www.w3.org/1999/xlink" x="0px" y="0px" viewBox="0 0 278.7 257.4"
     style="enable-background:new 0 0 278.7 257.4;" xml:space="preserve">
<style type="text/css">
    .st0{fill:#E82127;}
</style>
<sodipodi:namedview  bordercolor="#666666" borderlayer="false" borderopacity="1" fit-margin-bottom="0" fit-margin-left="0" fit-margin-right="0" fit-margin-top="0" gridtolerance="10" guidetolerance="10" id="namedview39" inkscape:current-layer="Layer_1" inkscape:cx="-15.338928" inkscape:cy="215.21533" inkscape:pageopacity="0" inkscape:pageshadow="2" inkscape:showpageshadow="false" inkscape:window-height="980" inkscape:window-maximized="1" inkscape:window-width="1920" inkscape:window-x="0" inkscape:window-y="34" inkscape:zoom="1.0423407" objecttolerance="10" pagecolor="#ffffff" showgrid="false">
    </sodipodi:namedview>
<g id="T" transform="translate(-33.796,-64.797)">
    <path id="path35" inkscape:connector-curvature="0" class="st0" d="M173.1,319.3l35.5-199.5c33.8,0,44.5,3.7,46,18.8
        c0,0,22.7-8.5,34.1-25.6c-44.6-20.7-89.5-21.6-89.5-21.6l-26.2,31.9l0.1,0L147,91.4c0,0-44.9,0.9-89.5,21.6
        c11.4,17.2,34.1,25.6,34.1,25.6c1.5-15.1,12.2-18.8,45.8-18.9L173.1,319.3"/>
    <path id="path37" inkscape:connector-curvature="0" class="st0" d="M173.1,82.2c36.1-0.3,77.4,5.6,119.7,24
        c5.7-10.2,7.1-14.7,7.1-14.7C253.7,73.2,210.4,67,173.1,66.8C135.9,67,92.6,73.2,46.3,91.5c0,0,2.1,5.5,7.1,14.7
        C95.7,87.7,137,81.9,173.1,82.2L173.1,82.2"/>
</g>
</svg>

